<?xml version="1.0" standalone="no"?>
<!DOCTYPE svg PUBLIC "-//W3C//DTD SVG 20010904//EN"
 "http://www.w3.org/TR/2001/REC-SVG-20010904/DTD/svg10.dtd">
<svg version="1.0" xmlns="http://www.w3.org/2000/svg"
 width="512.000000pt" height="512.000000pt" viewBox="0 0 512.000000 512.000000"
 preserveAspectRatio="xMidYMid meet">

<g transform="translate(0.000000,512.000000) scale(0.100000,-0.100000)"
fill="#000000" stroke="none">
<path d="M2955 3573 c-169 -97 -186 -109 -183 -131 3 -21 47 -50 298 -193
l295 -169 5 -352 c5 -321 7 -353 22 -356 16 -3 332 173 371 206 16 14 17 42
15 380 l-3 365 -300 171 c-165 95 -308 175 -317 178 -11 5 -82 -30 -203 -99z"/>
<path d="M1934 2007 c-2 -7 -3 -108 -2 -225 l3 -213 313 -184 313 -183 306
179 c169 98 310 182 315 187 4 4 11 98 14 208 7 208 2 244 -33 244 -9 0 -148
-77 -309 -171 l-292 -170 -292 170 c-161 94 -301 171 -312 171 -10 0 -21 -6
-24 -13z"/>
</g>
</svg>
